<svg width="791" height="31" viewBox="0 0 791 31" fill="none" xmlns="http://www.w3.org/2000/svg">
<path d="M15.5 15.5H775.5" stroke="#FDD6BA" stroke-width="2"/>
<path d="M30 15.5C30 23.5081 23.5081 30 15.5 30C7.49187 30 1 23.5081 1 15.5C1 7.49186 7.49187 1 15.5 1C23.5081 1 30 7.49186 30 15.5Z" fill="#FEFCF7" stroke="#0E8784" stroke-width="2"/>
<path d="M410 15.5C410 23.5081 403.508 30 395.5 30C387.492 30 381 23.5081 381 15.5C381 7.49186 387.492 1 395.5 1C403.508 1 410 7.49186 410 15.5Z" fill="#FEFCF7" stroke="#0E8784" stroke-width="2"/>
<path d="M790 15.5C790 23.5081 783.508 30 775.5 30C767.492 30 761 23.5081 761 15.5C761 7.49186 767.492 1 775.5 1C783.508 1 790 7.49186 790 15.5Z" fill="#FEFCF7" stroke="#0E8784" stroke-width="2"/>
</svg>
